<svg width="649" height="649" viewBox="0 0 649 649" fill="none" xmlns="http://www.w3.org/2000/svg">
<g clip-path="url(#clip0_1_10)">
<path d="M163.156 160.544C166.909 161.863 170.288 164.071 173.002 166.979C176.264 169.381 178.781 172.654 180.265 176.423C180.375 176.956 180.344 177.508 180.175 178.025C180.005 178.541 179.704 179.005 179.3 179.369C178.896 179.733 178.404 179.986 177.873 180.101C177.341 180.217 176.789 180.191 176.271 180.027C172.916 178.248 169.977 175.778 167.645 172.782C164.737 170.269 162.267 167.292 160.333 163.971C160.11 163.552 160.015 163.075 160.063 162.602C160.11 162.129 160.296 161.681 160.599 161.314C160.901 160.947 161.305 160.678 161.761 160.541C162.216 160.404 162.701 160.405 163.156 160.544Z" fill="white"/>
<path d="M73.9868 170.862C73.0035 170.184 72.2368 169.237 71.7795 168.134C71.3223 167.031 71.1939 165.819 71.4094 164.644C71.625 163.47 72.1749 162.383 72.9941 161.514C73.8133 160.645 74.8668 160.031 76.0267 159.747C105.363 158.637 134.388 166.09 159.561 181.196C160.673 181.927 161.513 183.004 161.951 184.261C162.389 185.518 162.4 186.884 161.982 188.148C161.565 189.412 160.742 190.503 159.642 191.251C158.542 192 157.225 192.365 155.896 192.29C141.682 191.208 127.653 188.399 114.118 183.925C100.288 181.111 86.8236 176.729 73.9868 170.862Z" fill="white"/>
<path d="M89.6538 214.955C98.9938 213.155 108.579 212.742 117.879 213.737C127.301 213.996 136.493 215.468 145.074 218.09C146.202 218.471 147.116 219.127 147.684 219.961C148.253 220.796 148.444 221.766 148.232 222.73C148.02 223.695 147.414 224.602 146.504 225.321C145.594 226.04 144.427 226.533 143.172 226.727C133.73 227.532 124.275 227.38 115.053 226.274C105.749 225.997 96.6465 224.641 88.055 222.252C87.0991 221.933 86.3229 221.38 85.8401 220.674C85.3573 219.969 85.194 219.149 85.3726 218.333C85.5513 217.517 86.063 216.749 86.8335 216.141C87.6039 215.533 88.5924 215.117 89.6538 214.955Z" fill="white"/>
<path d="M61.4416 272.328C71.8877 266.746 83.9649 261.866 96.931 257.988C107.547 254.315 119.253 252.1 130.135 251.705C130.708 251.726 131.212 251.815 131.607 251.966C132.002 252.117 132.278 252.326 132.413 252.577C132.549 252.827 132.54 253.113 132.389 253.412C132.237 253.711 131.946 254.015 131.538 254.301C122.738 258.866 112.44 262.727 101.484 265.569C89.5524 269.28 77.4118 272.714 65.1258 275.85C59.495 277.286 57.7758 274.297 61.4416 272.328Z" fill="white"/>
<path d="M113.486 289.563C116.226 287.73 119.058 286.037 121.97 284.492C122.324 284.318 122.72 284.252 123.112 284.3C123.503 284.349 123.872 284.511 124.173 284.766C124.473 285.021 124.693 285.358 124.805 285.736C124.917 286.115 124.915 286.517 124.802 286.895C124.451 288.756 123.822 290.553 122.934 292.226C121.875 293.919 120.525 295.41 118.945 296.631C116.157 299.537 112.344 301.238 108.32 301.371C107.707 301.319 107.118 301.113 106.607 300.77C106.097 300.428 105.682 299.961 105.402 299.414C105.122 298.867 104.986 298.257 105.007 297.643C105.028 297.029 105.205 296.43 105.522 295.903C107.109 292.95 110.946 291.29 113.486 289.563Z" fill="white"/>
<path d="M61.3682 223.645C57.1493 223.781 52.8958 223.828 48.6263 223.576C44.3568 223.325 38.5689 221.026 38.7728 215.86C39.0923 205.562 55.4736 208.674 61.7443 209.359C63.3868 209.733 64.8483 210.664 65.8815 211.995C66.9146 213.325 67.4556 214.972 67.4113 216.656C67.3669 218.34 66.7406 219.957 65.6388 221.231C64.5371 222.505 63.0281 223.358 61.3682 223.645Z" fill="white"/>
<path d="M484.978 359.33C483.155 359.278 481.547 358.747 480.474 357.843C479.4 356.939 478.938 355.727 479.179 354.447C479.421 353.168 480.349 351.914 481.779 350.934C483.208 349.953 485.036 349.319 486.9 349.155C503.571 347.551 520.187 346.69 536.643 346.58C551.614 346.2 568.774 345.473 582.399 348.529C583.32 348.707 584.082 349.094 584.575 349.634C585.069 350.175 585.268 350.841 585.145 351.536C585.021 352.231 584.581 352.92 583.888 353.502C583.195 354.085 582.285 354.532 581.289 354.778C566.318 358.587 549.243 358.852 534.239 359.359C517.652 360.076 501.198 360.066 484.978 359.33Z" fill="white"/>
<path d="M531.987 392.377C512.615 391.015 496.665 382.429 478.877 376.056C478.48 375.863 478.167 375.532 477.995 375.125C477.824 374.718 477.806 374.262 477.944 373.843C478.082 373.424 478.367 373.069 478.747 372.843C479.127 372.618 479.575 372.538 480.009 372.618C498.568 376.613 516.569 377.776 533.809 386.873C536.496 388.166 534.838 392.603 531.987 392.377Z" fill="white"/>
<path d="M478.518 387.848C495.661 396.649 512.206 406.645 528.035 417.765C543.664 428.096 562.884 437.786 574.91 452.466C575.552 453.48 575.897 454.659 575.904 455.862C575.91 457.065 575.578 458.24 574.946 459.246C574.315 460.252 573.411 461.046 572.344 461.533C571.278 462.019 570.093 462.177 568.933 461.988C551.098 456.156 534.962 441.716 519.822 430.77C503.747 419.944 488.405 408.004 473.905 395.033C470.572 392.232 474.392 385.983 478.518 387.848Z" fill="white"/>
<path d="M464.456 407.511C475.703 417.866 484.972 430.181 491.81 443.854C492.014 444.328 492.051 444.858 491.912 445.355C491.774 445.852 491.469 446.287 491.048 446.587C490.628 446.887 490.118 447.034 489.603 447.004C489.087 446.973 488.598 446.767 488.216 446.419C476.551 436.366 467.528 423.608 461.934 409.261C461.702 408.926 461.613 408.513 461.685 408.113C461.757 407.712 461.986 407.357 462.32 407.125C462.655 406.893 463.068 406.803 463.468 406.876C463.869 406.948 464.224 407.177 464.456 407.511Z" fill="white"/>
<path d="M449.714 423.937C453.987 428.485 459.108 435.455 458.78 441.977C458.763 442.23 458.679 442.475 458.539 442.686C458.399 442.898 458.206 443.07 457.979 443.185C457.753 443.299 457.501 443.354 457.247 443.342C456.993 443.33 456.747 443.253 456.532 443.118C451.345 439.095 449.389 430.642 448.863 424.413C448.867 424.315 448.896 424.22 448.948 424.137C448.999 424.054 449.071 423.985 449.156 423.938C449.241 423.89 449.337 423.865 449.435 423.865C449.533 423.865 449.629 423.89 449.714 423.937Z" fill="white"/>
<path d="M571.235 319.929C560.896 329.014 539.018 335.085 526.002 329.609C525.041 329.253 524.202 328.631 523.584 327.814C522.966 326.997 522.595 326.02 522.515 324.999C522.435 323.977 522.649 322.955 523.132 322.051C523.615 321.148 524.347 320.402 525.24 319.901C531.603 316.426 538.559 314.169 545.75 313.246C552.675 311.329 559.799 310.222 566.978 309.946C568.128 309.961 569.248 310.311 570.202 310.951C571.157 311.591 571.905 312.495 572.356 313.552C572.807 314.609 572.941 315.775 572.742 316.907C572.543 318.039 572.019 319.089 571.235 319.929Z" fill="white"/>
<g clip-path="url(#clip1_1_10)">
<path d="M150.315 165.613C154.068 166.932 157.447 169.14 160.161 172.048C163.423 174.45 165.94 177.723 167.424 181.492C167.534 182.025 167.503 182.577 167.334 183.094C167.164 183.61 166.863 184.074 166.459 184.438C166.055 184.803 165.563 185.055 165.032 185.17C164.5 185.286 163.948 185.26 163.429 185.097C160.075 183.317 157.136 180.847 154.803 177.851C151.896 175.338 149.426 172.361 147.492 169.04C147.269 168.621 147.174 168.144 147.222 167.671C147.269 167.198 147.455 166.75 147.758 166.383C148.06 166.016 148.464 165.747 148.92 165.61C149.375 165.473 149.86 165.474 150.315 165.613Z" fill="white"/>
<path d="M61.1458 175.931C60.1624 175.253 59.3957 174.306 58.9385 173.203C58.4812 172.1 58.3528 170.888 58.5684 169.713C58.784 168.539 59.3338 167.452 60.153 166.583C60.9723 165.714 62.0258 165.1 63.1856 164.816C92.5221 163.706 121.547 171.159 146.72 186.265C147.832 186.996 148.672 188.074 149.11 189.33C149.548 190.587 149.558 191.953 149.141 193.217C148.724 194.481 147.901 195.572 146.801 196.321C145.701 197.069 144.384 197.434 143.055 197.359C128.841 196.277 114.812 193.468 101.277 188.994C87.4466 186.18 73.9826 181.798 61.1458 175.931Z" fill="white"/>
<path d="M76.8128 220.024C86.1527 218.225 95.7383 217.811 105.038 218.806C114.46 219.066 123.652 220.537 132.233 223.159C133.361 223.54 134.275 224.196 134.843 225.03C135.412 225.865 135.603 226.835 135.391 227.8C135.179 228.764 134.573 229.671 133.663 230.39C132.753 231.109 131.585 231.602 130.331 231.796C120.889 232.602 111.434 232.449 102.212 231.343C92.9075 231.066 83.8055 229.71 75.2139 227.321C74.2581 227.002 73.4818 226.449 72.999 225.744C72.5162 225.038 72.3529 224.218 72.5316 223.402C72.7103 222.586 73.222 221.818 73.9924 221.21C74.7628 220.602 75.7513 220.186 76.8128 220.024Z" fill="white"/>
<path d="M48.6005 277.397C59.0467 271.815 71.1239 266.935 84.09 263.057C94.7064 259.384 106.412 257.169 117.293 256.774C117.867 256.795 118.371 256.884 118.766 257.035C119.161 257.186 119.437 257.395 119.572 257.646C119.708 257.896 119.699 258.182 119.548 258.481C119.396 258.78 119.105 259.084 118.697 259.37C109.897 263.935 99.5988 267.796 88.6428 270.638C76.7113 274.35 64.5707 277.783 52.2847 280.92C46.6539 282.355 44.9347 279.366 48.6005 277.397Z" fill="white"/>
<path d="M100.645 294.632C103.385 292.799 106.217 291.107 109.129 289.561C109.483 289.388 109.879 289.321 110.271 289.369C110.662 289.418 111.031 289.58 111.332 289.835C111.632 290.09 111.852 290.427 111.964 290.805C112.076 291.184 112.074 291.586 111.961 291.964C111.61 293.825 110.98 295.622 110.093 297.295C109.034 298.988 107.684 300.479 106.104 301.7C103.316 304.606 99.503 306.307 95.4785 306.44C94.8661 306.388 94.2765 306.182 93.7661 305.839C93.2556 305.497 92.8412 305.03 92.5613 304.483C92.2813 303.936 92.1451 303.327 92.1661 302.712C92.187 302.098 92.3639 301.499 92.6806 300.972C94.2679 298.019 98.105 296.359 100.645 294.632Z" fill="white"/>
<path d="M48.5272 228.714C44.3083 228.85 40.0547 228.897 35.7852 228.645C31.5157 228.394 25.7279 226.095 25.9317 220.929C26.2513 210.631 42.6325 213.743 48.9033 214.428C50.5457 214.802 52.0073 215.734 53.0404 217.064C54.0735 218.394 54.6146 220.042 54.5702 221.725C54.5259 223.409 53.8995 225.026 52.7978 226.3C51.696 227.574 50.187 228.427 48.5272 228.714Z" fill="white"/>
<path d="M472.137 364.399C470.314 364.347 468.706 363.816 467.632 362.912C466.559 362.008 466.096 360.796 466.338 359.516C466.58 358.237 467.508 356.983 468.938 356.003C470.367 355.023 472.195 354.388 474.059 354.224C490.73 352.62 507.346 351.759 523.802 351.649C538.773 351.269 555.933 350.542 569.558 353.598C570.479 353.776 571.241 354.163 571.734 354.703C572.228 355.244 572.427 355.91 572.304 356.605C572.18 357.3 571.74 357.989 571.047 358.571C570.354 359.154 569.444 359.601 568.448 359.847C553.477 363.656 536.402 363.921 521.398 364.428C504.81 365.145 488.357 365.135 472.137 364.399Z" fill="white"/>
<path d="M519.146 397.446C499.774 396.084 483.824 387.498 466.036 381.126C465.639 380.932 465.326 380.601 465.154 380.194C464.983 379.787 464.965 379.332 465.103 378.912C465.241 378.493 465.526 378.138 465.906 377.912C466.286 377.687 466.734 377.607 467.168 377.687C485.726 381.682 503.728 382.845 520.968 391.942C523.654 393.235 521.997 397.672 519.146 397.446Z" fill="white"/>
<path d="M465.677 392.917C482.82 401.718 499.364 411.714 515.194 422.834C530.823 433.165 550.043 442.855 562.068 457.535C562.711 458.549 563.056 459.728 563.063 460.931C563.069 462.134 562.737 463.309 562.105 464.315C561.474 465.322 560.57 466.116 559.503 466.602C558.437 467.088 557.252 467.246 556.092 467.057C538.257 461.225 522.121 446.785 506.98 435.839C490.906 425.013 475.564 413.073 461.064 400.102C457.731 397.301 461.55 391.052 465.677 392.917Z" fill="white"/>
<path d="M451.615 412.58C462.862 422.935 472.131 435.25 478.969 448.923C479.173 449.397 479.21 449.927 479.071 450.424C478.932 450.921 478.628 451.356 478.207 451.656C477.787 451.956 477.277 452.103 476.762 452.073C476.246 452.042 475.757 451.836 475.375 451.488C463.71 441.435 454.686 428.677 449.093 414.33C448.861 413.995 448.771 413.583 448.844 413.182C448.916 412.782 449.145 412.426 449.479 412.194C449.814 411.962 450.226 411.873 450.627 411.945C451.027 412.017 451.383 412.246 451.615 412.58Z" fill="white"/>
<path d="M436.873 429.006C441.146 433.554 446.267 440.524 445.939 447.046C445.921 447.299 445.838 447.544 445.698 447.755C445.558 447.967 445.365 448.139 445.138 448.254C444.912 448.369 444.659 448.423 444.406 448.411C444.152 448.4 443.906 448.322 443.691 448.187C438.504 444.165 436.548 435.711 436.022 429.482C436.026 429.384 436.055 429.289 436.107 429.206C436.158 429.123 436.23 429.054 436.315 429.007C436.4 428.959 436.496 428.934 436.594 428.934C436.692 428.934 436.788 428.959 436.873 429.006Z" fill="white"/>
<path d="M558.394 324.998C548.055 334.083 526.177 340.154 513.161 334.678C512.2 334.323 511.361 333.7 510.743 332.883C510.125 332.066 509.754 331.089 509.674 330.068C509.594 329.046 509.808 328.024 510.291 327.12C510.774 326.217 511.506 325.471 512.399 324.97C518.762 321.495 525.718 319.238 532.909 318.315C539.834 316.398 546.958 315.291 554.137 315.015C555.287 315.031 556.406 315.38 557.361 316.02C558.316 316.66 559.064 317.564 559.515 318.621C559.966 319.678 560.1 320.844 559.901 321.976C559.702 323.108 559.178 324.158 558.394 324.998Z" fill="white"/>
<path fill-rule="evenodd" clip-rule="evenodd" d="M336.039 180.689C336.039 180.689 369.294 299.428 373.835 347.545C378.376 395.662 379.56 415.755 347.175 435.223C314.791 454.691 260.386 444.411 243.449 404.152C226.512 363.894 201.173 211.566 201.173 211.566C201.173 211.566 286.122 149.578 336.039 180.689Z" fill="#F7C099"/>
<path fill-rule="evenodd" clip-rule="evenodd" d="M352.454 242.836C362.061 234.621 374.82 233.943 384.166 248.661C392.389 261.565 382.622 279.309 369.685 287.723C367.82 288.923 365.836 289.926 363.763 290.714C360.35 274.764 356.288 258.182 352.454 242.836Z" fill="#F7C099"/>
<path fill-rule="evenodd" clip-rule="evenodd" d="M371.886 286.189C371.163 286.747 370.424 287.235 369.685 287.723C367.82 288.923 365.836 289.926 363.763 290.714C361.595 280.583 359.149 270.181 356.651 260.048C358.366 259.147 360.257 258.63 362.192 258.532C373.434 257.959 376.845 274.753 371.781 286.212L371.886 286.189Z" fill="#F29877"/>
<path fill-rule="evenodd" clip-rule="evenodd" d="M212.878 276.883C196.27 261.117 170.751 259.393 166.815 286.741C164.379 303.283 182.05 316.475 198.68 319.149C206.216 320.454 213.966 318.795 220.309 314.52C217.57 301.725 215.14 288.827 212.848 276.743L212.878 276.883Z" fill="#F7C099"/>
<path fill-rule="evenodd" clip-rule="evenodd" d="M195.81 318.59L198.68 319.149C206.216 320.454 213.966 318.795 220.309 314.52L220.061 313.363L219.033 308.561L218.403 305.616L218.013 303.793L217.773 302.671L217.39 300.884L216.745 297.869L216.498 296.712L216.37 296.116L216.115 294.924C210.501 289.417 201.792 283.325 192.845 286.743C181.444 291.199 185.457 309.44 195.557 318.607L195.81 318.59Z" fill="#F29877"/>
<path fill-rule="evenodd" clip-rule="evenodd" d="M343.587 281.064C343.587 281.064 349.037 268.496 358.654 267.868C368.271 267.239 365.781 280.273 354.794 284.091C343.806 287.909 341.476 284.558 343.622 281.056L343.587 281.064Z" fill="#F4846E"/>
<path fill-rule="evenodd" clip-rule="evenodd" d="M243.377 302.911C243.377 302.911 231.497 290.056 219.779 293.884C208.06 297.711 216.696 312.544 231.461 311.987C246.226 311.43 247.457 306.218 243.377 302.911Z" fill="#F4846E"/>
<path fill-rule="evenodd" clip-rule="evenodd" d="M336.039 180.689C336.039 180.689 338.445 189.193 342.034 202.539C327.217 199.771 290.413 193.789 264.583 197.117C236.888 200.807 213.678 233.343 206.78 243.764C203.343 224.446 201.158 211.496 201.158 211.496C201.158 211.496 286.122 149.578 336.039 180.689Z" fill="#F29877"/>
<path fill-rule="evenodd" clip-rule="evenodd" d="M205.766 234.229C205.766 234.229 186.248 194.414 193.451 169.483C200.653 144.552 233.464 122.28 285.584 128.907C337.704 135.534 364.078 137.148 376.44 116.796C388.802 96.4434 375.363 75.2701 375.363 75.2701C375.363 75.2701 403.792 81.1744 407.592 108.7C411.393 136.225 389.895 145.921 389.895 145.921C394.336 148.773 399.506 150.281 404.783 150.264C410.061 150.246 415.221 148.705 419.643 145.824C436.308 135.989 433.104 123.074 433.104 123.074C433.104 123.074 462.282 173.764 433.669 201.26C410.124 224.005 370.614 214.973 339.877 200.508C293.097 178.404 220.98 167.587 205.804 234.405L205.766 234.229Z" fill="#42231E"/>
<path fill-rule="evenodd" clip-rule="evenodd" d="M381.357 343.296C386.623 353.167 397.989 375.957 401.697 394.997C404.522 411.246 404.455 427.866 401.498 444.092C401.498 444.092 401.886 459.443 408.865 467.554C413.014 472.433 418.504 475.987 424.653 477.777C420.021 480.541 414.993 482.581 409.744 483.827C402.961 485.022 394.913 477.909 394.913 477.909C394.913 477.909 395.739 496.502 429.792 503.843C463.844 511.183 475.258 504.048 475.258 504.048C475.258 504.048 467.874 542.692 435.875 551.629C403.877 560.567 384.218 556.928 384.218 556.928C388.954 560.357 394.201 563.02 399.764 564.819C403.631 565.687 407.577 566.157 411.539 566.222C411.539 566.222 378.713 581.056 320.642 553.816C262.572 526.576 256.229 474.665 256.229 474.665C255.685 481.522 255.761 488.414 256.456 495.257C257.012 499.57 257.995 503.818 259.389 507.937C247.848 502.821 238.456 493.835 232.836 482.531C222.959 463.271 223.1 452.793 223.1 452.793C220.308 457.437 216.899 461.681 212.968 465.41C207.181 470.571 196.923 469.063 196.923 469.063C199.29 457.437 200.651 445.628 200.991 433.768C201.572 420.01 200.99 406.228 199.25 392.568C215.998 395.469 233.204 394.143 249.31 388.711C258.994 385.486 268.157 380.87 276.512 375.007C297.273 438.79 340.625 419.175 330.456 393.415L349.954 391.846C349.954 391.846 347.842 413.671 365.405 407.859C380.224 402.928 371.687 354.127 368.694 339.113C372.703 340.712 377.081 342.158 381.493 343.414L381.357 343.296Z" fill="#42231E"/>
<path fill-rule="evenodd" clip-rule="evenodd" d="M381.357 343.296C382.576 345.565 384.128 348.532 385.819 351.983L370.515 348.989C369.659 344.993 369.162 341.47 368.699 338.966C372.708 340.564 377.086 342.01 381.498 343.266L381.357 343.296ZM200.119 401.254C199.79 397.658 199.405 394.661 199.145 392.59C215.929 395.502 233.174 394.168 249.31 388.711C258.994 385.487 268.157 380.87 276.512 375.007C277.43 377.927 278.409 380.614 279.477 383.208C265.73 390.964 250.743 396.28 235.18 398.92C223.698 401.526 211.884 402.361 200.149 401.394L200.119 401.254Z" fill="#301A16"/>
<path fill-rule="evenodd" clip-rule="evenodd" d="M321.798 295.221C321.798 295.221 330.576 277.652 368.478 281.566C406.379 285.48 424.664 295.205 446.18 281.142C467.697 267.079 452.899 241.614 442.509 239.658C436.483 238.432 430.229 239.043 424.554 241.411C424.554 241.411 441.433 227.607 457.242 236.725C473.051 245.843 474.642 268.012 474.642 268.012C477.361 266.246 479.725 263.987 481.612 261.352C483.024 258.223 483.857 254.865 484.074 251.44C487.879 257.369 490.326 264.067 491.238 271.053C492.15 278.039 491.504 285.14 489.348 291.848C487.286 298.579 483.472 304.642 478.297 309.415C473.121 314.188 466.77 317.5 459.893 319.011C462.644 320.993 465.838 322.273 469.196 322.739C471.636 322.947 474.09 322.95 476.53 322.746C476.53 322.746 464.023 341.223 419.847 347.047C375.671 352.871 329.884 318.274 329.884 318.274C329.884 318.274 295.183 374.201 249.31 388.711C203.436 403.22 176.851 384.347 176.851 384.347L191.468 376.416C191.468 376.416 152.565 380.672 137.268 367.778C121.971 354.884 121.509 342.958 121.509 342.958L140.542 351.386C134.191 340.8 131.045 328.599 131.486 316.261C132.405 296.231 145.615 289.775 145.615 289.775C145.615 289.775 132.222 335.973 175.661 339.728C177.802 339.901 179.952 339.931 182.096 339.818C197.85 339.086 216.333 331.575 231.341 322.901C258.153 307.375 281.96 287.909 321.903 295.199L321.798 295.221Z" fill="#42231E"/>
<path d="M378.019 303.024C377.774 302.857 377.591 302.615 377.496 302.335C377.402 302.055 377.401 301.751 377.494 301.47C377.587 301.189 377.769 300.946 378.012 300.778C378.256 300.61 378.547 300.526 378.843 300.538C387.561 301.018 396.078 303.815 404.842 304.506C414.043 305.307 423.313 304.562 432.269 302.303C439.976 300.289 447.317 297.072 454.022 292.772C461.065 287.809 466.763 281.172 470.602 273.46C470.87 272.999 471.584 273.25 471.423 273.871C465.738 288.762 451.04 301.109 436.224 306.222C426.779 309.35 416.818 310.622 406.891 309.97C397.344 309.557 386.024 308.056 378.019 303.024Z" fill="#633A36"/>
<path d="M163.014 351.38C174.513 353.722 185.091 356.554 196.987 355.952C208.241 355.425 219.252 352.494 229.278 347.355C248.635 337.42 262.749 319.772 282.659 310.709C283.393 310.369 283.991 311.451 283.265 311.826C261.198 322.634 246.843 344.293 224.331 354.389C205.893 362.624 179.723 365.218 161.766 354.287C159.904 353.292 161.294 351.052 163.014 351.38Z" fill="#633A36"/>
<path d="M212.861 373.598C221.284 373.429 229.621 371.868 237.535 368.977C244.943 365.585 251.934 361.345 258.367 356.344C264.581 352.098 270.445 347.361 275.903 342.18C280.994 337.021 283.608 330.046 289.05 325.326C289.136 325.249 289.248 325.209 289.363 325.216C289.478 325.222 289.585 325.274 289.662 325.36C289.739 325.445 289.778 325.558 289.772 325.673C289.766 325.787 289.714 325.895 289.628 325.972C284.238 331.964 281.55 339.615 275.779 345.543C269.494 352.13 262.779 358.295 255.679 363.995C244.296 372.993 227.626 382.463 212.7 377.298C211.005 376.744 210.838 373.737 212.861 373.598Z" fill="#633A36"/>
<path d="M378.492 319.456C393.839 322.748 409.733 322.506 424.973 318.748C426.165 318.493 426.928 320.346 425.718 320.862C410.276 326.52 393.358 326.697 377.8 321.364C376.621 320.993 377.398 319.141 378.492 319.456Z" fill="#633A36"/>
<path d="M451.929 310.743C455.445 307.851 459.383 305.512 463.606 303.809C463.851 303.756 464.094 304.034 463.906 304.184C460.743 307.468 457.098 310.251 453.097 312.436C452.874 312.547 452.618 312.573 452.376 312.51C452.135 312.448 451.923 312.3 451.782 312.095C451.64 311.889 451.577 311.64 451.604 311.392C451.631 311.144 451.746 310.914 451.929 310.743Z" fill="#633A36"/>
<path d="M350.084 292.064C355.669 286.983 366.76 289.302 372.348 293.312C372.41 293.368 372.455 293.44 372.476 293.521C372.498 293.602 372.496 293.687 372.47 293.766C372.444 293.845 372.396 293.915 372.331 293.968C372.266 294.02 372.188 294.053 372.105 294.061C368.44 293.449 364.713 293.298 361.01 293.612C357.852 294.472 354.616 295.017 351.35 295.24C350.987 295.228 350.636 295.111 350.339 294.903C350.041 294.695 349.811 294.404 349.677 294.067C349.543 293.73 349.509 293.361 349.582 293.005C349.654 292.649 349.829 292.322 350.084 292.064Z" fill="#633A36"/>
<path d="M291.348 342.577C295.259 336.09 300.601 330.583 306.967 326.477C308.018 325.739 309.593 326.759 308.802 328.028C304.911 334.648 299.561 340.294 293.161 344.536C291.856 345.292 290.78 343.689 291.348 342.577Z" fill="#633A36"/>
<path d="M221.572 407.111C221.551 407.009 221.57 406.902 221.627 406.814C221.684 406.726 221.773 406.665 221.875 406.643C221.978 406.621 222.085 406.641 222.172 406.697C222.26 406.754 222.322 406.844 222.344 406.946C225.979 417.423 228.176 429.234 221.972 439.47C221.755 439.777 221.446 440.007 221.09 440.125C220.734 440.243 220.349 440.245 219.992 440.128C219.635 440.012 219.324 439.784 219.106 439.479C218.888 439.173 218.774 438.806 218.78 438.43C219.694 427.97 222.746 417.565 221.572 407.111Z" fill="#633A36"/>
<path d="M250.924 416.3C250.307 411.703 248.245 407.379 247.846 402.772L248.161 402.704C253.43 408.652 254.647 419.647 255.306 427.351C256.245 437.056 255.344 446.851 252.648 456.222C252.265 457.513 250.605 456.952 250.505 455.8C249.869 447.175 251.181 438.572 251.354 429.956C251.558 425.4 251.415 420.835 250.924 416.3Z" fill="#633A36"/>
<path d="M276.484 396.973C288.757 425.545 294.179 456.536 306.347 485.13C311.939 499.08 320.071 511.872 330.331 522.854C340.868 533.723 353.281 540.159 365.943 547.934C367.793 549.042 366.272 551.53 364.424 551.119C336.526 544.954 314.741 518.015 303.736 493.314C290.093 462.799 287.549 428.81 274.901 397.972C274.413 396.72 276.026 395.861 276.484 396.973Z" fill="#633A36"/>
<path d="M272.546 430.994C275.955 444.525 274.068 458.493 276.62 472.135C279.554 486.063 285.502 499.181 294.046 510.565C294.223 510.815 294.302 511.121 294.269 511.425C294.235 511.729 294.092 512.011 293.866 512.217C293.64 512.423 293.347 512.539 293.041 512.544C292.735 512.549 292.438 512.441 292.205 512.242C282.704 502.773 276.147 490.756 273.326 477.642C269.823 462.298 273.565 446.723 270.758 431.376C270.707 431.139 270.753 430.892 270.884 430.688C271.016 430.485 271.223 430.342 271.46 430.291C271.697 430.24 271.945 430.286 272.148 430.418C272.352 430.549 272.495 430.757 272.546 430.994Z" fill="#633A36"/>
<path d="M327.835 440.609C327.926 440.322 328.109 440.073 328.357 439.902C328.604 439.731 328.901 439.646 329.202 439.661C329.502 439.676 329.789 439.791 330.018 439.986C330.247 440.182 330.404 440.448 330.466 440.742C332.707 468.345 339.75 495.946 362.742 513.792C373.168 521.924 385.583 527.114 398.695 528.821C411.807 530.528 425.137 528.691 437.297 523.5C437.406 523.45 437.529 523.444 437.642 523.482C437.755 523.521 437.849 523.601 437.904 523.707C437.959 523.812 437.972 523.935 437.94 524.05C437.908 524.164 437.833 524.262 437.73 524.324C413.592 538.471 381.783 535.27 359.501 518.518C336.839 501.188 322.228 469.231 327.835 440.609Z" fill="#633A36"/>
<path d="M368.175 425.597C368.184 425.417 368.229 425.24 368.307 425.077C368.385 424.915 368.494 424.769 368.628 424.648C368.899 424.405 369.256 424.279 369.62 424.298C369.984 424.317 370.325 424.48 370.569 424.751C370.812 425.022 370.938 425.379 370.919 425.743C370.503 433.309 372.116 440.849 375.592 447.582C378.983 454.006 384.152 458.289 388.405 463.941C389.106 464.817 388.362 466.48 387.082 465.984C372.772 460.101 367.187 439.483 368.175 425.597Z" fill="#633A36"/>
<path d="M372.783 486.017C373.643 487.3 371.84 488.639 370.664 487.937C353.791 477.617 355.658 453.791 354.962 437.003C355.899 446.269 357.854 455.403 360.79 464.241C363.752 472.024 367.789 479.354 372.783 486.017Z" fill="#633A36"/>
<path d="M386.802 419.448C387.064 405.937 387.21 393.258 383.09 380.172C382.85 379.051 384.46 378.523 384.958 379.479C391.239 391.699 394.465 406.773 389.672 420.007C389.565 420.354 389.334 420.649 389.022 420.836C388.711 421.022 388.342 421.087 387.985 421.018C387.629 420.948 387.311 420.75 387.093 420.46C386.874 420.17 386.771 419.809 386.802 419.448Z" fill="#633A36"/>
<path d="M382.646 418.357C383.127 425.443 383.204 432.551 382.876 439.645C382.83 440.461 381.511 440.634 381.401 439.777C380.393 432.615 379.78 425.403 379.564 418.174C379.51 416.206 382.514 416.369 382.646 418.357Z" fill="#633A36"/>
<path d="M315.154 435.147C316.669 444.794 318.569 454.359 320.119 464C320.351 465.086 318.611 465.862 318.146 464.715C314.76 455.281 313.194 445.291 313.532 435.274C313.555 434.353 315.029 434.22 315.154 435.147Z" fill="#633A36"/>
<path d="M412.552 515.451C405.313 514.426 398.382 511.845 392.236 507.883C390.862 507.114 392.199 505.142 393.566 505.876C399.835 508.885 406.294 511.483 412.901 513.653C413.827 514.041 413.636 515.549 412.552 515.451Z" fill="#633A36"/>
<path d="M339.049 422.775C338.757 417.815 338.473 412.889 338.006 407.967C337.999 407.716 338.08 407.47 338.236 407.272C338.391 407.075 338.611 406.938 338.856 406.885C339.102 406.833 339.359 406.868 339.581 406.984C339.804 407.101 339.978 407.292 340.075 407.524C341.604 412.561 341.776 417.912 340.571 423.035C340.338 424.002 339.074 423.576 339.049 422.775Z" fill="#633A36"/>
<path d="M351.531 418.234C352.246 420.946 352.401 423.775 351.986 426.549C351.571 429.323 350.595 431.983 349.118 434.368C348.525 435.191 346.91 434.84 347.07 433.706C347.437 431.135 348.269 428.684 348.69 426.027C349.111 423.371 349.197 420.86 349.634 418.273C349.673 418.053 349.787 417.853 349.957 417.708C350.127 417.562 350.343 417.48 350.566 417.476C350.79 417.471 351.008 417.544 351.184 417.682C351.36 417.82 351.483 418.015 351.531 418.234Z" fill="#633A36"/>
<path d="M268.876 417.445C266.286 411.736 264.297 405.772 262.942 399.651C262.567 397.898 265.071 397.436 265.607 399.081C267.875 404.807 269.552 410.75 270.612 416.817C270.657 417.036 270.622 417.265 270.513 417.461C270.404 417.657 270.227 417.807 270.016 417.883C269.805 417.96 269.574 417.957 269.365 417.877C269.155 417.796 268.982 417.643 268.876 417.445Z" fill="#633A36"/>
<path d="M454.765 521.008C455.216 520.545 455.941 521.196 455.611 521.707C450.22 529.753 444.156 538.419 435.121 542.626C434.822 542.773 434.48 542.808 434.157 542.725C433.833 542.642 433.551 542.446 433.359 542.172C433.168 541.899 433.081 541.566 433.114 541.234C433.146 540.902 433.296 540.593 433.537 540.362C439.889 533.21 448.185 527.952 454.765 521.008Z" fill="#633A36"/>
<path d="M306.423 525.404C308.387 530.215 311.304 534.578 314.998 538.233C315.676 539.004 314.882 540.604 313.778 540.071C311.131 538.649 308.909 536.549 307.342 533.985C305.776 531.42 304.92 528.485 304.863 525.481C304.796 524.652 306.153 524.655 306.423 525.404Z" fill="#633A36"/>
<path d="M263.045 147.441C250.828 149.285 238.011 149.352 227.045 155.841C217.279 161.597 213.626 169.711 211.523 180.61C211.59 180.925 210.874 181.005 210.786 180.767C207.023 171.234 213.929 159.821 220.992 153.764C232.251 144.022 248.617 142.207 262.953 144.271C264.488 144.419 265.003 147.169 263.045 147.441Z" fill="#633A36"/>
<path d="M280.633 167.616C266.873 166.015 254.197 163.999 240.827 170.049C240.585 170.13 240.323 170.122 240.086 170.026C239.85 169.931 239.655 169.755 239.536 169.53C239.417 169.304 239.382 169.044 239.438 168.795C239.493 168.546 239.635 168.325 239.839 168.171C251.992 161.061 268.443 156.734 281.701 163.869C282.043 164.12 282.299 164.469 282.437 164.871C282.574 165.272 282.585 165.706 282.469 166.113C282.353 166.521 282.115 166.884 281.787 167.152C281.459 167.421 281.056 167.583 280.633 167.616Z" fill="#633A36"/>
<path d="M218.776 188.809C219.585 188.306 220.822 189.288 220.391 190.187C219.394 192.38 217.916 194.382 216.896 196.47C215.876 198.558 215.009 201.017 214.14 203.292C214.028 203.545 213.834 203.753 213.589 203.88C213.344 204.008 213.063 204.049 212.792 203.997C212.521 203.944 212.276 203.801 212.097 203.59C211.917 203.38 211.815 203.115 211.807 202.838C211.751 200.111 212.356 197.411 213.57 194.969C214.783 192.526 216.57 190.413 218.776 188.809Z" fill="#633A36"/>
<path d="M367.932 154.984C357.453 159.778 345.65 160.842 334.483 157.999C332.562 157.42 332.503 154.06 334.701 153.883C344.9 153.057 354.667 153.643 364.555 150.171C373.828 146.903 383.083 141.33 387.78 132.443C388.179 131.734 389.172 132.438 388.844 133.132C384.7 142.675 377.283 150.424 367.932 154.984Z" fill="#633A36"/>
<path d="M376.559 195.298C355.93 195.349 330.358 189.09 314.823 174.744C313.271 173.317 315.137 170.388 317.083 171.255C325.174 174.802 332.877 179.276 341.431 182.248C350.292 185.438 359.507 187.541 368.874 188.51C388.503 190.468 413.101 187.551 419.264 165.299C419.512 164.403 421.035 164.663 420.907 165.607C417.701 186.603 395.43 195.255 376.559 195.298Z" fill="#633A36"/>
<path d="M349.97 169.899C359.788 170.035 368.713 171.827 378.649 170.288C379.665 170.07 380.318 171.58 379.284 172.058C370.089 176.372 358.193 178.514 348.735 173.72C346.795 172.705 348.1 169.896 349.97 169.899Z" fill="#633A36"/>
<path d="M304.003 152.277C299.71 151.796 295.549 150.496 291.745 148.448C291.537 148.316 291.379 148.119 291.295 147.887C291.212 147.655 291.207 147.402 291.283 147.168C291.359 146.933 291.51 146.731 291.714 146.592C291.917 146.453 292.161 146.385 292.407 146.4C296.609 146.581 300.74 147.536 304.595 149.218C306.185 149.794 305.836 152.618 304.003 152.277Z" fill="#633A36"/>
<path fill-rule="evenodd" clip-rule="evenodd" d="M266.113 205.808C264.093 202.893 261.302 200.597 258.052 199.175C254.803 197.754 251.222 197.263 247.71 197.758C235.521 199.56 238.363 216.439 238.363 216.439L266.113 205.808Z" fill="#42231E"/>
<path fill-rule="evenodd" clip-rule="evenodd" d="M326.302 207.482C325.725 204.93 324.533 202.557 322.83 200.57C321.127 198.583 318.964 197.042 316.53 196.082C308.701 193.761 301.505 202.45 301.505 202.45C301.505 202.45 326.249 207.237 326.231 207.497L326.302 207.482Z" fill="#42231E"/>
<path fill-rule="evenodd" clip-rule="evenodd" d="M270.522 244.568C270.522 244.568 271.59 265.492 262.22 269.331C252.849 273.169 247.228 249.296 247.228 249.296C247.228 249.296 255.17 264.314 261.764 261.033C268.357 257.752 270.161 245.452 270.507 244.498L270.522 244.568Z" fill="#46231F"/>
<path fill-rule="evenodd" clip-rule="evenodd" d="M338.969 231.387C338.969 231.387 340.037 252.311 330.66 256.115C321.282 259.918 315.668 236.08 315.668 236.08C315.668 236.08 323.583 251.14 330.211 247.852C336.84 244.564 338.601 232.236 338.954 231.317L338.969 231.387Z" fill="#46231F"/>
<path fill-rule="evenodd" clip-rule="evenodd" d="M344.069 341.56C344.069 341.56 344.821 364.092 333.719 364.635C322.617 365.178 315.712 345.759 315.712 345.759C315.712 345.759 314.107 375.431 330.597 375.568C347.087 375.706 348.777 354.484 344.061 341.525L344.069 341.56Z" fill="#8C523D"/>
<path fill-rule="evenodd" clip-rule="evenodd" d="M369.378 211.938C357.45 211.124 345.486 210.979 333.541 211.505C322.929 212.046 312.482 214.368 302.64 218.375L304.448 228.363C301.023 227.865 297.543 227.892 294.127 228.445C290.674 229.183 287.36 230.461 284.306 232.233C283.395 227.531 282.182 222.892 280.674 218.346C280.674 218.346 244.291 219.643 227.861 222.866C211.43 226.089 200.553 228.196 200.553 228.196L202.908 239.204L191.525 240.833L196.695 261.393L204.393 256.08L214.049 287.668C214.049 287.668 226.209 289.501 251.386 285.177C264.954 283.209 278.073 278.888 290.154 272.408C290.154 272.408 288.679 255.75 285.701 239.267C288.809 237.31 292.221 235.886 295.798 235.053C299.03 234.695 302.293 234.711 305.522 235.098L311.563 268.12C311.563 268.12 340.136 267.505 351.624 266.879C356.928 266.806 362.206 266.12 367.353 264.833C370.073 247.342 370.741 229.592 369.343 211.946L369.378 211.938ZM273.418 228.294C273.418 228.294 251.582 229.044 238.98 230.971C230.706 232.285 222.54 234.204 214.547 236.713L225.506 280.56C238.573 278.972 251.551 276.721 264.389 273.816C270.214 272.332 275.942 270.494 281.542 268.312C281.542 268.312 273.208 228.339 273.488 228.279L273.418 228.294ZM360.61 219.79C351.26 218.809 341.854 218.47 332.458 218.776C325.36 219.02 318.332 220.252 311.575 222.438L316.744 262.355L360.945 259.385C360.945 259.385 362.706 227.187 360.575 219.798L360.61 219.79Z" fill="#42231E"/>
<path fill-rule="evenodd" clip-rule="evenodd" d="M302.275 236.197C302.275 236.197 317.967 267.043 330.117 282.186C338.301 292.093 347.417 301.191 357.34 309.355C345.384 312.068 333.164 313.454 320.904 313.486C302.311 313.286 299.755 309.91 299.755 309.91C299.755 309.91 288.932 271.496 302.28 236.049L302.275 236.197Z" fill="#E57373"/>
</g>
</g>
<defs>
<clipPath id="clip0_1_10">
<rect width="546.589" height="546.589" fill="white" transform="matrix(-0.97786 0.209258 0.209258 0.97786 534.487 0)"/>
</clipPath>
<clipPath id="clip1_1_10">
<rect width="546.589" height="546.589" fill="white" transform="matrix(-0.97786 0.209258 0.209258 0.97786 521.646 5.06909)"/>
</clipPath>
</defs>
</svg>
